<?xml version="1.0" encoding="UTF-8"?>
<svg id="Layer_1" xmlns="http://www.w3.org/2000/svg" version="1.1" viewBox="0 0 114.24 63.56">
  <!-- Generator: Adobe Illustrator 30.3.0, SVG Export Plug-In . SVG Version: 2.1.3 Build 182)  -->
  <defs>
    <style>
      .st0 {
        letter-spacing: .2em;
      }

      .st0, .st1 {
        font-family: Orbitron-Regular, Orbitron;
        font-size: 6px;
      }

      .st2 {
        font-family: Syncopate-Bold, Syncopate;
        font-size: 15px;
        font-weight: 700;
      }

      .st1 {
        letter-spacing: .2em;
      }
    </style>
  </defs>
  <g>
    <g>
      <path d="M-105.17,0c-4.05,13.49-9.44,24.29-16.19,32.38,5.4-4.05,8.77-6.75,10.12-8.1,2.7-4.05,4.72-7.42,6.07-10.12V0Z"/>
      <path d="M-103.55,0c4.05,13.49,9.44,24.29,16.19,32.38-5.4-4.05-8.77-6.75-10.12-8.1-2.7-4.05-4.72-7.42-6.07-10.12V0Z"/>
    </g>
    <text class="st2" transform="translate(-166.18 50.84)"><tspan x="0" y="0">SPEARHEAD</tspan></text>
    <text class="st0" transform="translate(-143.35 62.06)"><tspan x="0" y="0">PIERCE THE LIMIT</tspan></text>
  </g>
  <g>
    <path d="M57.93,32.38c4.05-13.49,9.44-24.29,16.19-32.38-5.4,4.05-8.77,6.75-10.12,8.1-2.7,4.05-4.72,7.42-6.07,10.12v14.17Z"/>
    <path d="M56.31,32.38c-4.05-13.49-9.44-24.29-16.19-32.38,5.4,4.05,8.77,6.75,10.12,8.1,2.7,4.05,4.72,7.42,6.07,10.12v14.17Z"/>
  </g>
  <text class="st2" transform="translate(-.33 50.84)"><tspan x="0" y="0">VANGUARD</tspan></text>
  <text class="st1" transform="translate(23.65 62.06)"><tspan x="0" y="0">LEAD THE WAY</tspan></text>
</svg>